<svg xmlns="http://www.w3.org/2000/svg" viewBox="0 0 800 800"><g fill="none" stroke="currentColor" stroke-width="1.1"><path d="M-40 750C165 593 386 402 716 84M85 650C69 529 190 454 229 411C220 551 170 640 85 650ZM206 546C158 444 210 348 236 279C288 369 288 484 206 546ZM306 464C408 499 481 445 542 384C418 360 344 380 306 464ZM357 416C261 330 301 211 344 151C337 251 417 313 357 416ZM458 307C563 328 626 263 688 213C581 208 501 230 458 307ZM522 234C451 141 487 62 536 4C526 103 575 155 522 234ZM613 144C674 151 755 105 781 56C697 62 651 93 613 144Z"/><path d="M85 650C139 565 173 508 229 411M206 546C232 423 223 367 236 279M306 464C420 409 445 416 542 384M357 416C331 312 324 242 344 151M458 307C548 256 584 254 688 213M522 234C501 147 526 78 536 4M613 144C673 104 714 97 781 56"/></g></svg>
